<?xml version="1.0" encoding="UTF-8" standalone="no"?>
<!DOCTYPE svg PUBLIC "-//W3C//DTD SVG 1.1//EN" "http://www.w3.org/Graphics/SVG/1.1/DTD/svg11.dtd">
<svg xmlns="http://www.w3.org/2000/svg" version="1.1" viewBox="0.00 0.00 427.00 206.00">
<path d="
  M 39.50 197.43
  Q 24.43 191.31 16.19 176.43
  Q 12.40 169.58 11.54 162.52
  C 11.46 161.84 10.85 161.40 10.85 160.69
  Q 10.80 150.74 10.81 140.80
  A 0.44 0.44 0.0 0 1 11.25 140.36
  L 46.48 140.38
  Q 47.82 140.38 47.77 141.72
  C 47.55 147.52 47.16 155.60 51.55 160.04
  Q 56.46 165.00 62.90 165.44
  Q 73.25 166.13 92.47 165.72
  Q 98.05 165.60 101.35 163.72
  C 107.71 160.10 110.50 152.73 110.48 145.73
  Q 110.38 107.47 110.39 67.29
  Q 110.39 63.81 110.68 60.03
  Q 110.98 56.11 111.78 53.00
  Q 116.27 35.51 130.30 23.34
  Q 139.65 15.24 151.34 12.20
  Q 152.86 11.81 154.44 11.69
  C 155.99 11.58 157.23 10.77 158.79 10.82
  C 161.47 10.91 163.72 9.96 166.35 9.96
  Q 221.83 9.96 276.98 9.96
  Q 277.74 9.96 277.25 10.54
  Q 264.99 24.96 254.48 39.10
  C 252.79 41.36 250.70 43.38 248.66 45.36
  A 1.43 1.41 23.0 0 1 247.68 45.75
  C 224.70 45.74 201.68 46.03 178.71 45.76
  C 170.85 45.67 161.38 46.60 155.70 51.75
  Q 149.61 57.28 149.58 66.13
  Q 149.45 104.05 149.53 142.76
  C 149.54 147.64 149.07 152.81 148.42 157.73
  Q 147.63 163.70 145.25 169.45
  C 138.76 185.16 126.60 196.00 109.94 200.07
  Q 103.33 201.69 92.85 201.60
  Q 73.96 201.44 59.29 201.47
  Q 49.50 201.49 39.50 197.43
  Z"
/>
<path d="
  M 369.50 165.50
  L 283.75 165.50
  Q 283.03 165.50 282.75 166.17
  C 281.70 168.65 280.34 170.94 279.41 173.48
  Q 274.36 187.24 268.67 200.82
  A 1.14 1.13 11.2 0 1 267.62 201.52
  Q 212.71 201.53 157.79 201.53
  Q 156.66 201.53 155.52 201.39
  A 0.26 0.26 0.0 0 1 155.37 200.95
  Q 159.80 196.54 163.45 192.42
  Q 175.01 179.38 185.19 167.55
  A 3.75 3.73 -69.5 0 1 188.02 166.25
  L 238.93 166.26
  A 3.24 3.23 -78.6 0 0 241.91 164.27
  L 305.34 11.75
  A 2.89 2.67 -77.8 0 1 307.87 9.97
  L 352.48 9.96
  A 0.77 0.77 0.0 0 1 353.20 10.45
  Q 367.07 45.53 380.77 83.02
  Q 384.87 94.24 389.41 106.53
  Q 397.31 127.93 405.23 149.17
  Q 406.62 152.88 407.91 156.63
  C 409.06 160.01 410.48 163.16 411.70 166.48
  Q 418.13 184.00 423.91 200.64
  Q 424.20 201.50 423.29 201.50
  L 385.03 201.50
  Q 383.82 201.50 383.36 200.38
  Q 376.38 183.32 370.13 165.94
  Q 369.97 165.50 369.50 165.50
  Z
  M 328.32 51.85
  Q 327.54 52.65 327.09 53.61
  C 323.51 61.22 320.56 69.70 317.31 77.78
  Q 306.94 103.61 296.78 129.95
  A 1.04 1.04 0.0 0 0 297.75 131.37
  L 356.51 131.37
  A 1.27 1.26 79.5 0 0 357.69 129.65
  Q 342.83 91.47 331.00 58.15
  Q 330.08 55.54 329.37 52.79
  Q 329.22 52.19 328.67 51.81
  A 0.27 0.27 0.0 0 0 328.32 51.85
  Z"
/>
</svg>
